# AST/ASF file generated using VICON BodyLanguage
# -----------------------------------------------
:version 1.10
:name VICON
:units
  mass 1.0
  length 0.45
  angle deg
:documentation
   .ast/.asf automatically generated from VICON data using
   VICON BodyBuilder and BodyLanguage model FoxedUp or BRILLIANT.MOD
:root
   order TX TY TZ RX RY RZ
   axis XYZ
   position 0 0 0  
   orientation 0 0 0 
:bonedata
  begin
     id 1 
     name lhipjoint
     direction 0.573633 -0.743009 0.344793 
     length 2.46257 
     axis 0 0 0  XYZ
  end
  begin
     id 2 
     name lfemur
     direction 0.34202 -0.939693 0  
     length 7.3842  
     axis 0 0 20  XYZ
    dof rx ry rz
    limits (-160.0 20.0)
           (-70.0 70.0)
           (-60.0 70.0)
  end
  begin
     id 3 
     name ltibia
     direction 0.34202 -0.939693 0   
     length 7.50407   
     axis 0 0 20   XYZ
    dof rx
    limits (-10.0 170.0)
  end
  begin
     id 4 
     name lfoot
     direction 0.110749 -0.304281 0.946123   
     length 1.95925   
     axis -90 7.62852e-016 20   XYZ
    dof rx rz
    limits (-45.0 90.0)
           (-70.0 20.0)
  end
  begin
     id 5 
     name ltoes
     direction 1.53554e-011 -4.21843e-011 1   
     length 0.978318   
     axis -90 7.62852e-016 20   XYZ
    dof rx
    limits (-90.0 20.0)
  end
  begin
     id 6 
     name rhipjoint
     direction -0.488109 -0.791693 0.367385   
     length 2.31113  
     axis 0 0 0  XYZ 
  end
  begin
     id 7 
     name rfemur
     direction -0.34202 -0.939693 0   
     length 7.40965   
     axis 0 0 -20   XYZ
    dof rx ry rz
    limits (-160.0 20.0)
           (-70.0 70.0)
           (-70.0 60.0)
  end
  begin
     id 8 
     name rtibia
     direction -0.34202 -0.939693 0   
     length 7.55548   
     axis 0 0 -20   XYZ
    dof rx
    limits (-10.0 170.0)
 end
 begin
     id 9 
     name rfoot
     direction -0.127594 -0.350561 0.927808   
     length 2.07199  
     axis -90 -7.62852e-016 -20   XYZ
    dof rx rz
    limits (-45.0 90.0)
           (-20.0 70.0)
  end
  begin
     id 10 
     name rtoes
     direction -1.53542e-011 -4.21909e-011 1   
     length 1.02667   
     axis -90 -7.62852e-016 -20   XYZ
    dof rx
    limits (-90.0 20.0)
  end
  begin
     id 11 
     name lowerback
     direction -0.0103342 0.997298 -0.0727278   
     length 2.02836   
     axis 0 0 0   XYZ
    dof rx ry rz
    limits (-20.0 45.0)
           (-30.0 30.0)
           (-30.0 30.0)
  end
  begin
     id 12 
     name upperback
     direction 0.0171146 0.999786 -0.011606   
     length 2.03179   
     axis 0 0 0   XYZ
    dof rx ry rz
    limits (-20.0 45.0)
           (-30.0 30.0)
           (-30.0 30.0)
  end
  begin
     id 13 
     name thorax
     direction 0.0216927 0.999513 0.0224343   
     length 2.03882   
     axis 0 0 0   XYZ
    dof rx ry rz
    limits (-20.0 45.0)
           (-30.0 30.0)
           (-30.0 30.0)
  end
  begin
     id 14 
     name lowerneck
     direction 0.000989287 0.993907 0.110221   
     length 1.75428   
     axis 0 0 0   XYZ
    dof rx ry rz
    limits (-20.0 45.0)
           (-30.0 30.0)
           (-30.0 30.0)
  end
  begin
     id 15 
     name upperneck
     direction -0.0172474 0.994813 -0.100253   
     length 1.77058   
     axis 0 0 0   XYZ
    dof rx ry rz
    limits (-20.0 45.0)
           (-30.0 30.0)
           (-30.0 30.0)
  end
  begin
     id 16
     name head
     direction -0.00486455 0.99894 -0.0457663  
     length 1.77427  
     axis 0 0 0   XYZ
    dof rx ry rz
    limits (-20.0 45.0)
           (-30.0 30.0)
           (-30.0 30.0)
  end
  begin
     id 17 
     name lclavicle
     direction 0.927314 0.333734 -0.169441  
     length 3.97584  
     axis 0 0 0   XYZ
    dof ry rz
    limits (-20.0 10.0)
           (0.0 20.0)
  end
  begin
     id 18 
     name lhumerus
     direction 1 -4.48965e-011 -3.25313e-028   
     length 4.76468   
     axis 180 -30 -90   XYZ
    dof rx ry rz
    limits (-60.0 90.0)
           (-90.0 90.0)
           (-90.0 90.0)
  end
  begin
     id 19
     name lradius
     direction 1 -4.48969e-011 -2.8465e-028   
     length 3.52712   
     axis -180 -30 -90   XYZ
    dof rx
    limits (-10.0 170.0)
  end
  begin
     id 20
     name lwrist
     direction 1 -4.4896e-011 -7.78665e-028   
     length 1.76356   
     axis 1.91374e-015 90 90   XYZ
    dof ry
    limits (-180.0 0.0)
 end
  begin
     id 21 
     name lhand
     direction 1 -4.48959e-011 -1.55733e-027   
     length 0.859564   
     axis 9.9371e-016 90 90   XYZ
    dof rx rz
    limits (-90.0 90.0)
           (-45.0 45.0)
  end
  begin
     id 22 
     name lfingers
     direction 1 -4.48965e-011 -3.11466e-027   
     length 0.693002   
     axis 1.98742e-015 90 90   XYZ
    dof rx
    limits (0.0 90.0)
  end
  begin
     id 23
     name lthumb
     direction 0.707107 -6.34948e-011 0.707107   
     length 0.995017   
     axis -90 45 2.85299e-015   XYZ
    dof rx rz
    limits (-45.0 45.0)
           (-45.0 45.0)
  end
  begin
     id 24 
     name rclavicle
     direction -0.899388 0.348209 -0.264294   
     length 3.68366  
     axis 0 0 0   XYZ 
    dof ry rz
    limits (-10.0 20.0)
           (-20.0 0.0)
  end
  begin
     id 25 
     name rhumerus
     direction -1 -4.48965e-011 -3.01536e-027  
     length 4.90577   
     axis 180 30 90   XYZ
    dof rx ry rz
    limits (-90.0 60.0)
           (-90.0 90.0)
           (-90.0 90.0)
  end
  begin
     id 26 
     name rradius
     direction -1 -4.48966e-011 3.93291e-027   
     length 3.42692   
     axis -180 30 90   XYZ
    dof rx
    limits (-10.0 170.0)
  end
  begin
     id 27 
     name rwrist
     direction -1 -4.48969e-011 -7.78665e-028   
     length 1.71346   
     axis 1.91374e-015 -90 -90   XYZ
    dof ry
    limits (-180.0 0.0)
  end
  begin
     id 28
     name rhand
     direction -1 -4.48967e-011 -1.55733e-027   
     length 0.740957   
     axis 9.9371e-016 -90 -90   XYZ
    dof rx rz
    limits (-90.0 90.0)
           (-45.0 45.0)
  end
  begin
     id 29
     name rfingers
     direction -1 -4.48949e-011 -3.11466e-027   
     length 0.597378   
     axis 1.98742e-015 -90 -90   XYZ
    dof rx
    limits (0.0 90.0)
  end
  begin
     id 30
     name rthumb
     direction -0.707107 -6.34931e-011 0.707107   
     length 0.857719   
     axis -90 -45 -2.85299e-015   XYZ
    dof rx rz
    limits (-45.0 45.0)
           (-45.0 45.0)
  end
:hierarchy
  begin
    root lhipjoint rhipjoint lowerback
    lhipjoint lfemur
    lfemur ltibia
    ltibia lfoot
    lfoot ltoes
    rhipjoint rfemur
    rfemur rtibia
    rtibia rfoot
    rfoot rtoes
    lowerback upperback
    upperback thorax
    thorax lowerneck lclavicle rclavicle
    lowerneck upperneck
    upperneck head
    lclavicle lhumerus
    lhumerus lradius
    lradius lwrist
    lwrist lhand lthumb
    lhand lfingers
    rclavicle rhumerus
    rhumerus rradius
    rradius rwrist
    rwrist rhand rthumb
    rhand rfingers
  end

#!OML:ASF E:\I on waltz\AllaLogoMonkeySwing\Project 1\Capture day 1\Session 1\Subject1.ASF
:FULLY-SPECIFIED
:DEGREES
259
root 0.3512 17.6524 28.5046 -5.0239 0.732796 -0.625511
lowerback 9.02279 0.773143 -1.90879
upperback -0.202411 0.940118 2.08428
thorax -5.34551 0.544982 3.1269
lowerneck -11.8731 4.79922 4.23649
upperneck 17.8424 7.09418 -6.59401
head 7.8534 3.06499 -2.13074
rclavicle -3.97569e-015 7.95139e-016
rhumerus -38.0232 -25.1929 -75.2856
rradius 27.3535
rwrist 5.53666
rhand -5.40906 -36.4331
rfingers 7.12502
rthumb 20.4003 -65.3815
lclavicle -3.97569e-015 7.95139e-016
lhumerus -45.542 32.635 67.3178
lradius 28.0332
lwrist -15.4804
lhand -9.46174 -17.0072
lfingers 7.12502
lthumb 16.5019 12.311
rfemur 4.3361 2.1269 12.2314
rtibia 15.5244
rfoot -11.8784 -8.84824
rtoes 8.96516
lfemur 5.4909 -0.800327 -16.7739
ltibia 9.87681
lfoot -12.5633 -3.54198
ltoes -20.7326
260
root 0.327622 17.649 28.5363 -5.02581 0.675065 -0.583688
lowerback 9.06346 0.902833 -1.81631
upperback -0.184008 1.12055 2.05243
thorax -5.3591 0.631022 3.01604
lowerneck -11.9193 4.56965 3.6381
upperneck 17.9152 6.80401 -6.12506
head 7.83031 2.92828 -1.90917
rclavicle 1.26601e-014 1.11319e-014
rhumerus -37.8662 -25.0561 -75.3125
rradius 27.4671
rwrist 5.11644
rhand -5.12992 -36.3287
rfingers 7.12502
rthumb 20.6686 -65.2482
lclavicle 1.26601e-014 1.11319e-014
lhumerus -45.5885 32.3534 68.0245
lradius 28.2112
lwrist -15.1836
lhand -8.86774 -16.6186
lfingers 7.12502
lthumb 17.0738 12.6512
rfemur 4.50603 2.12871 12.2671
rtibia 15.4065
rfoot -11.9351 -8.81875
rtoes 8.16465
lfemur 5.64658 -0.816135 -16.7694
ltibia 9.85324
lfoot -12.697 -3.3439
ltoes -21.771
261
root 0.303963 17.6501 28.5652 -4.94762 0.669548 -0.180493
lowerback 9.03881 1.00101 -2.13298
upperback -0.202137 1.20942 1.89375
thorax -5.37349 0.681651 3.01669
lowerneck -12.0459 4.48915 3.40494
upperneck 18.1607 6.69866 -5.86102
head 7.91093 2.88038 -1.7927
rclavicle 7.15625e-015 -1.31198e-014
rhumerus -37.7012 -24.7168 -75.4604
rradius 27.4535
rwrist 4.61542
rhand -5.0732 -36.0735
rfingers 7.12502
rthumb 20.7231 -64.987
lclavicle 7.15625e-015 -1.31198e-014
lhumerus -45.6469 31.9568 68.7452
lradius 28.6944
lwrist -14.0044
lhand -8.01293 -15.9935
lfingers 7.12502
lthumb 17.8964 13.2031
rfemur 4.56583 1.98843 11.8093
rtibia 15.3355
rfoot -12.045 -8.62603
rtoes 7.76833
lfemur 5.68622 -0.80207 -17.2151
ltibia 9.87567
lfoot -12.7842 -3.1616
ltoes -22.3837
262
root 0.277683 17.6536 28.5909 -4.77843 0.630053 0.187912
lowerback 8.95403 1.1375 -2.4249
upperback -0.253339 1.35286 1.72682
thorax -5.39233 0.758977 2.98766
lowerneck -12.1001 4.3999 3.3859
upperneck 18.367 6.5769 -5.79192
head 7.97964 2.82335 -1.77899
rclavicle -7.20594e-016 1.98785e-015
rhumerus -37.5544 -24.3763 -75.5902
rradius 27.3831
rwrist 4.11256
rhand -5.28693 -35.8182
rfingers 7.12502
rthumb 20.5177 -64.754
lclavicle -7.20594e-016 1.98785e-015
lhumerus -45.5226 31.3225 69.6881
lradius 29.2297
lwrist -12.3513
lhand -7.31503 -15.1631
lfingers 7.12502
lthumb 18.5678 13.9707
rfemur 4.50126 1.98606 11.4412
rtibia 15.2588
rfoot -12.1275 -8.47543
rtoes 7.84762
lfemur 5.60097 -0.825297 -17.5814
ltibia 9.89048
lfoot -12.836 -2.97619
ltoes -21.8106
263
root 0.249629 17.6538 28.6174 -4.65929 0.572092 0.227603
lowerback 8.87653 1.23564 -2.43698
upperback -0.27576 1.47975 1.65047
thorax -5.37937 0.820938 2.89783
lowerneck -11.9989 4.28261 3.28463
upperneck 18.385 6.39557 -5.5866
head 7.94756 2.75154 -1.71657
rclavicle -2.03382e-014 -1.98785e-015
rhumerus -37.3602 -24.1421 -75.6892
rradius 27.2362
rwrist 3.75681
rhand -5.71876 -35.5631
rfingers 7.12502
rthumb 20.1027 -64.5431
lclavicle -2.03382e-014 -1.98785e-015
lhumerus -45.3087 30.5651 70.7304
lradius 29.7832
lwrist -10.5239
lhand -6.85217 -14.5317
lfingers 7.12502
lthumb 19.013 14.559
rfemur 4.48831 2.0042 11.4967
rtibia 15.1868
rfoot -12.2297 -8.38966
rtoes 7.66792
lfemur 5.60763 -0.86501 -17.5266
ltibia 9.81543
lfoot -12.9148 -2.82701
ltoes -20.7888
264
root 0.221924 17.6526 28.6425 -4.6091 0.520093 0.0327029
lowerback 8.86638 1.30305 -2.20161
upperback -0.266894 1.59357 1.6345
thorax -5.36497 0.870049 2.73265
lowerneck -11.9738 4.15738 3.06403
upperneck 18.4356 6.20523 -5.27281
head 7.93275 2.67531 -1.59806
rclavicle 2.04997e-014 2.42517e-014
rhumerus -37.0466 -23.8953 -75.8012
rradius 26.8979
rwrist 3.36975
rhand -6.35819 -35.3319
rfingers 7.12502
rthumb 19.488 -64.3752
lclavicle 2.04997e-014 2.42517e-014
lhumerus -45.0705 29.8171 71.7698
lradius 30.412
lwrist -9.01132
lhand -6.30813 -14.2382
lfingers 7.12502
lthumb 19.5361 14.8003
rfemur 4.52698 1.93228 11.8278
rtibia 15.177
rfoot -12.4393 -8.28921
rtoes 6.82294
lfemur 5.709 -0.82497 -17.1836
ltibia 9.70087
lfoot -12.9981 -2.76653
ltoes -21.2382
265
root 0.192875 17.6525 28.6624 -4.51332 0.445151 -0.398035
lowerback 8.86838 1.34382 -1.74211
upperback -0.299165 1.69865 1.67899
thorax -5.3942 0.910499 2.50508
lowerneck -11.8861 4.07673 2.97108
upperneck 18.4877 6.07438 -5.06717
head 7.91836 2.62707 -1.5308
rclavicle -7.31155e-015 -2.10712e-014
rhumerus -36.7194 -23.5197 -75.956
rradius 26.4304
rwrist 3.01356
rhand -7.08091 -35.2591
rfingers 7.12502
rthumb 18.793 -64.3713
lclavicle -7.31155e-015 -2.10712e-014
lhumerus -44.8422 28.9948 72.8276
lradius 31.0797
lwrist -7.75929
lhand -5.77766 -14.0351
lfingers 7.12502
lthumb 20.0461 14.9508
rfemur 4.50383 1.98443 12.4981
rtibia 15.1446
rfoot -12.5444 -8.32721
rtoes 6.17014
lfemur 5.71562 -0.863209 -16.5529
ltibia 9.65497
lfoot -13.0626 -2.62548
ltoes -22.1118
266
root 0.163919 17.6531 28.6792 -4.32746 0.440632 -0.625147
lowerback 8.77709 1.37094 -1.5065
upperback -0.333951 1.76009 1.67043
thorax -5.375 0.934326 2.35613
lowerneck -11.8139 4.00714 2.84787
upperneck 18.532 5.94892 -4.78895
head 7.90157 2.58591 -1.43369
rclavicle 7.11898e-015 1.03368e-014
rhumerus -36.3452 -23.2262 -76.0621
rradius 25.919
rwrist 2.78243
rhand -7.88754 -35.0893
rfingers 7.12502
rthumb 18.017 -64.2748
lclavicle 7.11898e-015 1.03368e-014
lhumerus -44.4855 28.1401 73.9492
lradius 31.6247
lwrist -6.74457
lhand -5.3359 -14.1247
lfingers 7.12502
lthumb 20.4706 14.8162
rfemur 4.37661 1.99265 12.8973
rtibia 15.1039
rfoot -12.6304 -8.49088
rtoes 5.60286
lfemur 5.57625 -1.02177 -16.1942
ltibia 9.6699
lfoot -13.087 -2.42653
ltoes -21.5361
267
root 0.136396 17.6535 28.6969 -4.16675 0.494363 -0.471669
lowerback 8.67386 1.41072 -1.63892
upperback -0.339443 1.79346 1.54245
thorax -5.32416 0.952211 2.29438
lowerneck -11.7195 3.88908 2.66052
upperneck 18.5581 5.74722 -4.40826
head 7.86714 2.51424 -1.3009
rclavicle -2.80783e-015 -3.97569e-016
rhumerus -35.9521 -23.172 -76.0686
rradius 25.3125
rwrist 2.65069
rhand -8.90463 -34.6354
rfingers 7.12502
rthumb 17.0382 -63.9082
lclavicle -2.80783e-015 -3.97569e-016
lhumerus -44.0403 27.4296 74.967
lradius 32.0043
lwrist -6.35234
lhand -4.96016 -14.4187
lfingers 7.12502
lthumb 20.8317 14.4829
rfemur 4.27607 1.84551 12.7756
rtibia 15.0967
rfoot -12.9485 -8.61471
rtoes 4.45547
lfemur 5.48823 -1.13052 -16.3122
ltibia 9.62505
lfoot -13.064 -2.30961
ltoes -20.8671
268
root 0.105647 17.6537 28.7133 -4.0562 0.536481 -0.535017
lowerback 8.63316 1.43599 -1.5739
upperback -0.348248 1.82976 1.45865
thorax -5.30732 0.967036 2.16601
lowerneck -11.4452 3.74812 2.59835
upperneck 18.4732 5.50763 -4.13008
head 7.77017 2.42755 -1.2299
rclavicle -5.29264e-015 3.37934e-015
rhumerus -35.5661 -23.2385 -76.046
rradius 24.5886
rwrist 2.58924
rhand -9.7585 -34.2741
rfingers 7.12502
rthumb 16.2162 -63.6159
lclavicle -5.29264e-015 3.37934e-015
lhumerus -43.6273 26.6343 75.9408
lradius 32.4601
lwrist -6.15334
lhand -4.72931 -14.416
lfingers 7.12502
lthumb 21.0535 14.4612
rfemur 4.22803 1.79441 12.973
rtibia 15.0892
rfoot -13.2063 -8.72242
rtoes 3.6204
lfemur 5.44693 -1.14535 -16.115
ltibia 9.56571
lfoot -13.079 -2.2936
ltoes -21.1002
269
root 0.072593 17.6545 28.7263 -3.92055 0.601713 -0.818218
lowerback 8.56854 1.47142 -1.27331
upperback -0.351384 1.90713 1.43771
thorax -5.2671 0.996404 1.96584
lowerneck -11.5498 3.36408 1.56915
upperneck 18.8368 4.92179 -2.80294
head 7.82566 2.19635 -0.682625
rclavicle 1.19302e-014 2.34566e-014
rhumerus -35.0945 -23.3678 -75.9893
rradius 23.7892
rwrist 2.56942
rhand -10.383 -34.1586
rfingers 7.12502
rthumb 15.6148 -63.5483
lclavicle 1.19302e-014 2.34566e-014
lhumerus -43.2017 25.617 77.0455
lradius 33.0357
lwrist -5.8379
lhand -4.55469 -14.3155
lfingers 7.12502
lthumb 21.2212 14.5429
rfemur 4.15455 1.8257 13.4748
rtibia 15.0507
rfoot -13.2897 -8.83555
rtoes 3.31054
lfemur 5.32083 -1.16074 -15.6164
ltibia 9.57859
lfoot -13.1598 -2.35493
ltoes -21.4118
270
root 0.0399779 17.6565 28.7399 -3.74663 0.664382 -0.889
lowerback 8.42686 1.54288 -1.16365
upperback -0.353421 2.00974 1.35049
thorax -5.18675 1.04242 1.80286
lowerneck -11.5465 3.24754 1.82328
upperneck 19.0069 4.74298 -2.93028
head 7.88654 2.11543 -0.784164
rclavicle 2.17825e-014 -2.38542e-015
rhumerus -34.6621 -23.6341 -75.8783
rradius 23.0034
rwrist 2.67169
rhand -11.1456 -34.1241
rfingers 7.12502
rthumb 14.8802 -63.5697
lclavicle 2.17825e-014 -2.38542e-015
lhumerus -42.7563 24.6964 78.0676
lradius 33.4972
lwrist -5.79839
lhand -4.38584 -14.2881
lfingers 7.12502
lthumb 21.3834 14.5519
rfemur 4.05408 1.83464 13.6921
rtibia 14.977
rfoot -13.3783 -8.91904
rtoes 3.21062
lfemur 5.15188 -1.24674 -15.4008
ltibia 9.60238
lfoot -13.2188 -2.34306
ltoes -21.5398
271
root 0.0088394 17.6593 28.7531 -3.51483 0.687303 -0.645481
lowerback 8.22546 1.63341 -1.34358
upperback -0.392451 2.10251 1.12308
thorax -5.11559 1.08982 1.65966
lowerneck -12.0725 2.48975 1.2635
upperneck 19.7567 3.70374 -2.34279
head 8.18132 1.62527 -0.596796
rclavicle -1.55766e-014 1.63003e-014
rhumerus -34.3479 -24.1151 -75.7519
rradius 22.176
rwrist 2.97152
rhand -11.8273 -34.0673
rfingers 7.12502
rthumb 14.2234 -63.5603
lclavicle -1.55766e-014 1.63003e-014
lhumerus -42.2614 23.8362 78.8885
lradius 33.7864
lwrist -5.80037
lhand -4.16627 -14.2351
lfingers 7.12502
lthumb 21.5943 14.5809
rfemur 3.86217 1.76034 13.481
rtibia 14.9418
rfoot -13.482 -8.86933
rtoes 3.27558
lfemur 4.96448 -1.33095 -15.5964
ltibia 9.54883
lfoot -13.2055 -2.24374
ltoes -21.8148
272
root -0.0206784 17.66 28.7643 -3.33312 0.633564 -0.58385
lowerback 8.0597 1.70858 -1.31601
upperback -0.399209 2.19692 0.926158
thorax -5.02385 1.13259 1.43172
lowerneck -12.0203 2.21241 1.01314
upperneck 20.1136 3.23159 -1.6486
head 8.26517 1.44967 -0.374341
rclavicle 1.96393e-014 -4.96962e-015
rhumerus -33.9445 -24.6911 -75.6603
rradius 21.2847
rwrist 3.46718
rhand -12.1802 -34.1672
rfingers 7.12502
rthumb 13.8833 -63.6838
lclavicle 1.96393e-014 -4.96962e-015
lhumerus -41.6759 23.1596 79.5518
lradius 33.9432
lwrist -5.71662
lhand -3.92152 -14.4246
lfingers 7.12502
lthumb 21.8293 14.3642
rfemur 3.66457 1.64754 13.4721
rtibia 14.9653
rfoot -13.5789 -8.78508
rtoes 3.197
lfemur 4.85919 -1.34774 -15.5665
ltibia 9.44833
lfoot -13.1301 -2.13563
ltoes -22.2943
